<?xml version="1.0" encoding="UTF-8"?>
<svg id="Layer_3" data-name="Layer 3" xmlns="http://www.w3.org/2000/svg" xmlns:xlink="http://www.w3.org/1999/xlink" viewBox="0 0 823.48 369.38">
  <defs>
    <style>
      .cls-1 {
        fill: url(#linear-gradient-2);
      }

      .cls-2 {
        fill: url(#linear-gradient);
      }
    </style>
    <linearGradient id="linear-gradient" x1="489.54" y1="41.15" x2="105.86" y2="421.7" gradientUnits="userSpaceOnUse">
      <stop offset="0" stop-color="#fff"/>
      <stop offset="1" stop-color="#fff" stop-opacity="0"/>
    </linearGradient>
    <linearGradient id="linear-gradient-2" x1="531.52" y1="70.4" x2="-45.63" y2="646.9" gradientUnits="userSpaceOnUse">
      <stop offset="0" stop-color="#fff" stop-opacity=".8"/>
      <stop offset=".47" stop-color="#fff" stop-opacity="0"/>
    </linearGradient>
  </defs>
  <path class="cls-2" d="M-5.08,158.29s175.11-24.78,207.51,89.57c0,0,228.89-51.46,247.85,91.48,0,0,83.76-23.51,85.03,29.86H-5.08v-210.91Z"/>
  <path class="cls-1" d="M0,19.92s76.94.57,84.4,66.37c0,0,43.78-66.37,115.97-20.52,0,0,28.4-78.44,100.59-54.3,72.19,24.14,92.3,97.75,98.22,125.5,0,0,145.55-42.24,177.51,100.16h46.61s54.44-4.83,60.35,36.2c0,0,68.64-14.48,81.65,39.82,0,0,43.78,4.83,50.89,54.3H0V19.92Z"/>
</svg>