<?xml version="1.0" encoding="UTF-8"?>
<svg id="Artboard_2" xmlns="http://www.w3.org/2000/svg" viewBox="0 0 892.69 723.06">
  <polygon points="773.83 446.71 773.71 446.83 773.71 446.71 773.83 446.71"/>
  <path d="M382.15,419.42c-1.54,0-3.1-.17-4.64-.51-5.51-1.23-10.21-4.53-13.23-9.29l-27.94-43.98c-3.02-4.76-4.02-10.41-2.79-15.92,1.23-5.5,4.53-10.2,9.29-13.23l187.12-118.86c9.83-6.25,22.91-3.32,29.15,6.51l27.94,43.99c3.03,4.76,4.02,10.42,2.79,15.92-1.23,5.5-4.53,10.2-9.29,13.23l-187.12,118.86c-3.43,2.18-7.32,3.3-11.28,3.3ZM541.29,234.73c-.14,0-.27.04-.39.11l-187.11,118.86c-.06.04-.25.16-.32.46-.07.29.06.48.1.54l27.94,43.99c.04.06.16.26.45.32.28.06.49-.06.55-.1l187.12-118.86c.06-.04.25-.16.32-.46.07-.29-.06-.48-.1-.54h0s-27.94-43.99-27.94-43.99c-.14-.22-.38-.34-.61-.34Z"/>
  <path d="M305.24,435.71c-6.62,0-12.81-3.33-16.5-9.13-4.46-7.03-4.09-15.84.96-22.46l46.56-61.07,16.22,12.36-45.35,59.49,73.12-15.77,6.55,20.29-77.31,15.83c-1.42.31-2.84.45-4.24.45Z"/>
  <path d="M291.2,641.83h-.03c-10.97,0-20.65-6.94-25.27-18.08l-30.01-72.33h-45.94c-47.9,0-86.87-45.85-86.87-102.2v-234.19c0-56.35,38.97-102.2,86.87-102.2h479.17c47.9,0,86.87,45.85,86.87,102.2h-20.39c0-45.11-29.82-81.81-66.48-81.81H189.95c-36.66,0-66.48,36.7-66.48,81.81v234.19c0,45.11,29.82,81.81,66.48,81.81h59.56l35.23,84.91c1.42,3.44,3.84,5.5,6.46,5.5h0c2.63,0,5.06-2.06,6.5-5.51l35.22-84.9h120.61v20.39h-107l-30.01,72.33c-4.65,11.16-14.35,18.08-25.32,18.08Z"/>
  <path d="M745.8,311.93c-27.28,0-49.48-22.2-49.48-49.48s22.2-49.48,49.48-49.48,49.48,22.2,49.48,49.48-22.2,49.48-49.48,49.48ZM745.8,233.36c-16.04,0-29.09,13.05-29.09,29.09s13.05,29.09,29.09,29.09,29.09-13.05,29.09-29.09-13.05-29.09-29.09-29.09Z"/>
  <rect x="468.73" y="446.72" width="24.22" height="106.19"/>
  <rect x="492.95" y="530.23" width="58.4" height="22.67"/>
  <polygon points="690.28 446.71 690.28 552.92 666.06 552.92 666.06 476 633.93 507.81 621.98 507.81 589.68 475.86 589.68 552.92 565.46 552.92 565.46 446.71 589.68 446.71 589.68 446.77 589.77 446.71 627.99 484.06 666.06 446.83 666.18 446.71 690.28 446.71"/>
  <polygon points="666.18 446.71 666.06 446.83 666.06 446.71 666.18 446.71"/>
  <rect x="526.82" y="238.91" width="8" height="75.34" transform="translate(-64.96 334.12) rotate(-33.04)"/>
</svg>