<svg xmlns="http://www.w3.org/2000/svg" viewBox="100 100 700 550"><path d="M382.15 419.42c-1.54 0-3.1-.17-4.64-.51-5.51-1.23-10.21-4.53-13.23-9.29l-27.94-43.98c-3.02-4.76-4.02-10.41-2.79-15.92 1.23-5.5 4.53-10.2 9.29-13.23l187.12-118.86c9.83-6.25 22.91-3.32 29.15 6.51l27.94 43.99a20.95 20.95 0 0 1 2.79 15.92c-1.23 5.5-4.53 10.2-9.29 13.23L393.43 416.14c-3.43 2.18-7.32 3.3-11.28 3.3Zm159.14-184.69c-.14 0-.27.04-.39.11L353.79 353.7c-.06.04-.25.16-.32.46-.07.29.06.48.1.54l27.94 43.99c.04.06.16.26.45.32.28.06.49-.06.55-.1l187.12-118.86c.06-.04.25-.16.32-.46.07-.29-.06-.48-.1-.54s-27.94-43.99-27.94-43.99a.73.73 0 0 0-.61-.34Z"/><path d="M305.24 435.71c-6.62 0-12.81-3.33-16.5-9.13-4.46-7.03-4.09-15.84.96-22.46l46.56-61.07 16.22 12.36-45.35 59.49 73.12-15.77 6.55 20.29-77.31 15.83c-1.42.31-2.84.45-4.24.45Z"/><path d="M291.2 641.83h-.03c-10.97 0-20.65-6.94-25.27-18.08l-30.01-72.33h-45.94c-47.9 0-86.87-45.85-86.87-102.2V215.03c0-56.35 38.97-102.2 86.87-102.2h479.17c47.9 0 86.87 45.85 86.87 102.2H735.6c0-45.11-29.82-81.81-66.48-81.81H189.95c-36.66 0-66.48 36.7-66.48 81.81v234.19c0 45.11 29.82 81.81 66.48 81.81h59.56l35.23 84.91c1.42 3.44 3.84 5.5 6.46 5.5 2.63 0 5.06-2.06 6.5-5.51l35.22-84.9h120.61v20.39h-107l-30.01 72.33c-4.65 11.16-14.35 18.08-25.32 18.08"/><path d="M745.8 311.93c-27.28 0-49.48-22.2-49.48-49.48s22.2-49.48 49.48-49.48 49.48 22.2 49.48 49.48-22.2 49.48-49.48 49.48m0-78.57c-16.04 0-29.09 13.05-29.09 29.09s13.05 29.09 29.09 29.09 29.09-13.05 29.09-29.09-13.05-29.09-29.09-29.09M468.73 446.72h24.22v106.19h-24.22z"/><path d="M492.95 530.23h58.4v22.67h-58.4zm197.33-83.52v106.21h-24.22V476l-32.13 31.81h-11.95l-32.3-31.95v77.06h-24.22V446.71h24.22v.06l.09-.06 38.22 37.35 38.07-37.23.12-.12z"/><path d="m666.18 446.71-.12.12v-.12zM506.928 247.16l6.706-4.361 41.077 63.157-6.706 4.362z"/></svg>